<svg width="18" height="16" viewBox="0 0 18 16" fill="none" xmlns="http://www.w3.org/2000/svg">
<path d="M6.20882 12.5826V10.071L1.05673 10.071C0.721651 10.071 0.450012 9.79932 0.450012 9.46424L0.450012 6.53489C0.450012 6.19981 0.721651 5.92817 1.05673 5.92817H6.20882V3.41653C6.20882 3.12311 6.55144 2.96321 6.77633 3.15168L12.2451 7.73472C12.4099 7.87283 12.4099 8.12631 12.2451 8.26442L6.77633 12.8475C6.55144 13.0359 6.20882 12.876 6.20882 12.5826Z" fill="#0078BE"/>
<path d="M15.4129 15.6514H11.4704C11.117 15.6514 10.8303 15.3648 10.8303 15.0113C10.8303 14.6579 11.117 14.3712 11.4704 14.3712H15.4129C15.8855 14.3712 16.2698 13.9867 16.2698 13.5141V2.48547C16.2698 2.01289 15.8855 1.62836 15.4129 1.62836H11.4704C11.117 1.62836 10.8303 1.3417 10.8303 0.988252C10.8303 0.6348 11.117 0.348145 11.4704 0.348145H15.4129C16.5913 0.348145 17.55 1.30688 17.55 2.48547V13.5141C17.55 14.6927 16.5913 15.6514 15.4129 15.6514Z" fill="#0078BE"/>
</svg>
