<svg width="25" height="25" viewBox="0 0 25 25" fill="none" xmlns="http://www.w3.org/2000/svg">
<path d="M12.5656 0C5.66249 0 0.0656128 5.59687 0.0656128 12.5C0.0656128 19.4031 5.66249 25 12.5656 25C19.4687 25 25.0656 19.4031 25.0656 12.5C25.0656 5.59687 19.4687 0 12.5656 0ZM18.3562 9.04219L12.3687 18.1938C12.3672 18.1953 12.3641 18.1969 12.3641 18.1984C12.3328 18.2453 12.3156 18.2984 12.2766 18.3422C12.2219 18.4016 12.1516 18.4328 12.0891 18.4781C12.0734 18.4891 12.0578 18.5016 12.0406 18.5125C11.9437 18.5734 11.8437 18.6141 11.7344 18.6406C11.6984 18.65 11.6656 18.6594 11.6281 18.6656C11.5391 18.6781 11.4547 18.6781 11.3656 18.6688C11.3031 18.6641 11.2437 18.6562 11.1828 18.6406C11.1203 18.6234 11.0625 18.5969 11.0031 18.5688C10.9531 18.5453 10.9 18.5391 10.8531 18.5094C10.8187 18.4875 10.8 18.4531 10.7703 18.4266C10.7578 18.4156 10.7422 18.4125 10.7297 18.4016L7.24374 15.1781C6.79999 14.7672 6.77343 14.075 7.1828 13.6328C7.59218 13.1906 8.28436 13.1625 8.72811 13.5719L11.2516 15.9062L16.525 7.84531C16.8562 7.34062 17.5328 7.19844 18.0391 7.52812C18.5453 7.85937 18.6875 8.5375 18.3562 9.04219Z" fill="#00457C"/>
</svg>
